<?xml version="1.0" encoding="UTF-8"?><svg id="Layer_1" xmlns="http://www.w3.org/2000/svg" viewBox="0 0 120.97 67.7"><defs><style>.cls-1{fill:#bad3ee;}</style></defs><path class="cls-1" d="M53.34,33.77c0,1.8-.41,3.47-1.22,4.99-.81,1.52-2,2.86-3.56,4-1.37,.97-2.85,1.69-4.45,2.17-1.6,.48-3.35,.72-5.26,.72s-3.64-.24-5.29-.73c-1.65-.48-3.14-1.2-4.46-2.16-1.56-1.15-2.74-2.47-3.55-3.97s-1.2-3.19-1.2-5.07,.35-3.41,1.05-4.79,1.79-2.65,3.28-3.82c1.4-1.12,2.95-1.94,4.67-2.46,1.72-.52,3.55-.78,5.5-.78s3.87,.26,5.54,.79,3.15,1.3,4.46,2.31c1.52,1.16,2.64,2.46,3.38,3.9,.74,1.44,1.1,3.07,1.1,4.89Zm-3.98,.11c0-1.54-.3-2.91-.89-4.12-.59-1.21-1.62-2.27-3.07-3.2-.86-.55-1.86-.98-3.01-1.29-1.15-.31-2.31-.46-3.48-.46-1.44,0-2.71,.16-3.8,.47s-2.16,.83-3.2,1.54c-1.22,.83-2.11,1.84-2.69,3.01-.58,1.17-.87,2.46-.87,3.86,0,1.68,.36,3.13,1.07,4.35,.71,1.22,1.76,2.24,3.14,3.08,.84,.51,1.79,.89,2.85,1.16,1.06,.27,2.19,.4,3.41,.4,1.29,0,2.53-.17,3.73-.5,1.19-.34,2.22-.79,3.07-1.38,1.26-.83,2.2-1.84,2.81-3.01s.92-2.48,.92-3.92Z"/><path class="cls-1" d="M84,45.08h-3.78l.02-2.55h-.02c-1.92,.92-3.95,1.67-6.08,2.24s-4.13,.86-5.99,.86c-2.79,0-4.91-.68-6.37-2.03-1.46-1.36-2.18-3.23-2.18-5.61,0-1.18,.01-2.37,.03-3.6s.03-2.4,.03-3.53-.01-2.71-.03-4.76-.03-3.28-.03-3.66h3.87c0,.36-.01,1.47-.03,3.33s-.03,3.43-.03,4.72c0,1.44,.01,2.75,.03,3.92,.02,1.17,.03,2.04,.03,2.61,0,1.67,.5,2.98,1.49,3.94,.99,.96,2.51,1.44,4.55,1.44,1.44,0,3.04-.22,4.78-.67,1.75-.44,3.73-1.17,5.93-2.2,.02-3.19,.02-5.39,.02-6.6,0-2.04-.02-4.16-.06-6.35-.04-2.19-.06-3.57-.06-4.14h3.87c0,.45-.01,1.67-.03,3.66s-.03,4.27-.03,6.83c0,2.98,.01,5.29,.03,6.92s.03,3.37,.03,5.22Z"/><path class="cls-1" d="M96.8,18.25h-4.23v-3.96h4.23v3.96Zm-.2,26.84h-3.83c0-.39,.01-2.01,.03-4.86,.02-2.86,.03-5.15,.03-6.88,0-1.49-.01-3.08-.03-4.75s-.03-3.72-.03-6.14h3.83c0,2.33-.01,4.25-.03,5.78s-.03,3.23-.03,5.11c0,2.73,.01,5.27,.03,7.63,.02,2.36,.03,3.73,.03,4.12Z"/></svg>